<?xml version="1.0" encoding="UTF-8"?>
<!-- Generated by jsxcad -->
<!DOCTYPE svg PUBLIC "-//W3C//DTD SVG 1.1 Tiny//EN" "http://www.w3.org/Graphics/SVG/1.1/DTD/svg11-tiny.dtd">
<svg baseProfile="tiny" height="28.13639506855459mm" width="23.05493565858032mm" viewBox="-11.462730150412787 -16.090758165974986 23.05493565858032 28.13639506855459" version="1.1" stroke="black" stroke-width=".1" fill="none" xmlns="http://www.w3.org/2000/svg">
<path fill="#000000" stroke="#000000" d="M11.077196342689195 5.493064995364925 L11.592205508167524 7.910885504794135 L11.592205508167524 -3.865764241398757 L11.077196342689195 -6.283584750827967 z"/>
<path fill="#000000" stroke="#000000" d="M9.57792967068746 3.2900784486290426 L11.077196342689195 5.493064995364925 L11.077196342689195 -6.283584750827966 L9.57792967068746 -8.486571297563849 z"/>
<path fill="#000000" stroke="#000000" d="M4.235108235019689 0.27510558792103895 L7.2276219153930885 1.4976708869111937 L7.2276219153930885 -10.2789788592817 L4.235108235019689 -11.501544158271855 z"/>
<path fill="#000000" stroke="#000000" d="M0.8662866024984226 -0.26898715638670656 L4.235108235019689 0.27510558792103307 L4.235108235019689 -11.501544158271855 L0.8662866024984226 -12.045636902579595 z"/>
<path fill="#000000" stroke="#000000" d="M7.227621915393091 1.4976708869111954 L9.577929670687464 3.2900784486290413 L9.57792967068746 -8.486571297563847 L7.22762191539309 -10.278978859281695 z"/>
<path fill="#000000" stroke="#000000" d="M-2.5795083962909677 -0.0862623179686017 L0.8662866024984227 -0.2689871563866996 L0.8662866024984227 -12.045636902579593 L-2.5795083962909677 -11.862912064161495 z"/>
<path fill="#000000" stroke="#000000" d="M-5.796102754083759 0.8070441994071386 L-2.5795083962909677 -0.08626231796860254 L-2.5795083962909677 -11.862912064161495 L-5.796102754083759 -10.969605546785754 z"/>
<path fill="#000000" stroke="#000000" d="M-8.497687946398226 2.33155819146061 L-5.796102754083762 0.807044199407143 L-5.796102754083759 -10.969605546785752 L-8.497687946398226 -9.445091554732281 z"/>
<path fill="#000000" stroke="#000000" d="M-10.44421627318588 4.351819899778394 L-8.497687946398225 2.331558191460609 L-8.497687946398225 -9.445091554732285 L-10.444216273185882 -7.424829846414498 z"/>
<path fill="#000000" stroke="#000000" d="M-11.462730150412778 6.688320205803981 L-10.44421627318588 4.351819899778394 L-10.44421627318588 -7.424829846414498 L-11.462730150412778 -5.08832954038891 z"/>
<path fill="#000000" stroke="#000000" d="M-11.462730150412778 9.13345080378429 L-11.462730150412778 6.688320205803981 L-11.462730150412778 -5.08832954038891 L-11.462730150412778 -2.6431989424086013 z"/>
<path fill="#000000" stroke="#000000" d="M0.8662866024984184 16.09075816597497 L-2.579508396290973 15.908033327556874 L-2.579508396290973 4.131383581363981 L0.8662866024984184 4.31410841978208 z"/>
<path fill="#000000" stroke="#000000" d="M-5.7961027540837655 15.014726810181134 L-8.497687946398228 13.490212818127665 L-8.497687946398228 1.7135630719347723 L-5.796102754083765 3.238077063988241 z"/>
<path fill="#000000" stroke="#000000" d="M-2.579508396290973 15.908033327556872 L-5.796102754083765 15.01472681018113 L-5.796102754083765 3.2380770639882406 L-2.579508396290973 4.131383581363983 z"/>
<path fill="#000000" stroke="#000000" d="M-8.497687946398228 13.490212818127663 L-10.44421627318588 11.469951109809879 L-10.44421627318588 -0.30669863638301326 L-8.497687946398228 1.7135630719347716 z"/>
<path fill="#000000" stroke="#000000" d="M-10.44421627318588 11.469951109809879 L-11.462730150412778 9.13345080378429 L-11.462730150412778 -2.643198942408601 L-10.44421627318588 -0.30669863638301337 z"/>
<path fill="#000000" stroke="#000000" d="M4.2351082350196885 15.546665421667234 L0.8662866024984184 16.09075816597497 L0.8662866024984184 4.314108419782081 L4.2351082350196885 3.7700156754743412 z"/>
<path fill="#000000" stroke="#000000" d="M7.227621915393091 14.324100122677079 L4.2351082350196885 15.546665421667235 L4.2351082350196885 3.7700156754743417 L7.227621915393091 2.547450376484185 z"/>
<path fill="#000000" stroke="#000000" d="M9.57792967068746 12.53169256095923 L7.227621915393092 14.324100122677079 L7.227621915393091 2.547450376484186 L9.577929670687459 0.7550428147663387 z"/>
<path fill="#000000" stroke="#000000" d="M11.077196342689199 10.328706014223341 L9.577929670687459 12.53169256095923 L9.577929670687459 0.7550428147663388 L11.077196342689197 -1.4479437319695505 z"/>
<path fill="#000000" stroke="#000000" d="M11.592205508167522 7.910885504794135 L11.077196342689199 10.328706014223341 L11.077196342689199 -1.4479437319695503 L11.592205508167522 -3.865764241398757 z"/>
<path fill="#000000" stroke="#000000" d="M11.077196342689195 -6.283584750827967 L11.592205508167524 -3.8657642413987574 L11.077196342689199 -1.4479437319695503 L9.577929670687459 0.7550428147663388 L7.227621915393092 2.5474503764841856 L4.235108235019689 3.7700156754743426 L0.8662866024984184 4.314108419782083 L-2.5795083962909735 4.131383581363984 L-5.7961027540837655 3.238077063988241 L-8.497687946398228 1.7135630719347716 L-10.444216273185882 -0.3066986363830135 L-11.462730150412778 -2.6431989424086013 L-11.462730150412778 -5.0883295403889095 L-10.44421627318588 -7.424829846414498 L-8.497687946398223 -9.445091554732283 L-5.796102754083759 -10.96960554678575 L-2.5795083962909677 -11.862912064161494 L0.8662866024984227 -12.04563690257959 L4.235108235019689 -11.501544158271852 L7.227621915393089 -10.278978859281697 L9.577929670687459 -8.486571297563849 z"/>
<path fill="#000000" stroke="#000000" d="M11.592205508167524 7.910885504794135 L11.077196342689195 5.493064995364925 L9.577929670687459 3.2900784486290426 L7.227621915393089 1.4976708869111954 L4.235108235019689 0.27510558792104084 L0.8662866024984227 -0.2689871563866988 L-2.5795083962909677 -0.08626231796860087 L-5.796102754083759 0.8070441994071402 L-8.497687946398223 2.3315581914606085 L-10.44421627318588 4.351819899778394 L-11.462730150412778 6.688320205803981 L-11.462730150412778 9.13345080378429 L-10.444216273185882 11.469951109809879 L-8.497687946398228 13.490212818127665 L-5.7961027540837655 15.014726810181134 L-2.5795083962909735 15.908033327556875 L0.8662866024984184 16.090758165974975 L4.235108235019689 15.546665421667234 L7.227621915393092 14.324100122677077 L9.577929670687459 12.53169256095923 L11.077196342689199 10.328706014223343 z"/>
</svg>