<?xml version="1.0" encoding="UTF-8"?>
<!-- Generated by jsxcad -->
<!DOCTYPE svg PUBLIC "-//W3C//DTD SVG 1.1 Tiny//EN" "http://www.w3.org/Graphics/SVG/1.1/DTD/svg11-tiny.dtd">
<svg baseProfile="tiny" height="34.0939669495032mm" width="24.08606674649874mm" viewBox="-11.975400304237812 -21.53481933296851 24.08606674649874 34.0939669495032" version="1.1" stroke="black" stroke-width=".1" fill="none" xmlns="http://www.w3.org/2000/svg">
<path fill="#bababa" stroke="#bababa" d="M11.572623512171328 10.463144753333355 L12.11066644226092 12.989102189674844 L12.110666442260921 -4.01343047324102 L11.572623512171328 -6.539387909582511 z"/>
<path fill="#bababa" stroke="#bababa" d="M10.006302197403512 8.161629720192431 L11.57262351217133 10.463144753333353 L11.572623512171328 -6.539387909582511 L10.006302197403512 -8.840902942723433 z"/>
<path fill="#bababa" stroke="#bababa" d="M7.550877020462481 6.289056800979023 L10.006302197403512 8.161629720192431 L10.00630219740351 -8.840902942723433 L7.550877020462481 -10.71347586193684 z"/>
<path fill="#bababa" stroke="#bababa" d="M4.4245232837753345 5.011812317216131 L7.550877020462477 6.2890568009790195 L7.550877020462477 -10.713475861936846 L4.4245232837753345 -11.990720345699733 z"/>
<path fill="#bababa" stroke="#bababa" d="M0.9050312366241213 4.443385046381193 L4.4245232837753345 5.011812317216133 L4.4245232837753345 -11.990720345699735 L0.9050312366241213 -12.559147616534675 z"/>
<path fill="#bababa" stroke="#bababa" d="M-2.694876807565287 4.634282245989879 L0.9050312366241212 4.443385046381191 L0.9050312366241212 -12.559147616534673 L-2.694876807565287 -12.368250416925985 z"/>
<path fill="#bababa" stroke="#bababa" d="M-6.055333221130464 5.5675418621184045 L-2.694876807565287 4.634282245989879 L-2.694876807565287 -12.368250416925983 L-6.055333221130464 -11.434990800797463 z"/>
<path fill="#bababa" stroke="#bababa" d="M-8.877746704606032 7.160239682331377 L-6.055333221130468 5.567541862118408 L-6.055333221130471 -11.434990800797454 L-8.877746704606032 -9.842292980584489 z"/>
<path fill="#bababa" stroke="#bababa" d="M-10.911333434027638 9.270857515863602 L-8.87774670460603 7.160239682331373 L-8.87774670460603 -9.84229298058449 L-10.911333434027638 -7.731675147052263 z"/>
<path fill="#bababa" stroke="#bababa" d="M-11.975400304237803 11.711857705911958 L-10.911333434027636 9.270857515863602 L-10.911333434027636 -7.731675147052263 L-11.975400304237803 -5.290674957003907 z"/>
<path fill="#bababa" stroke="#bababa" d="M-11.975400304237803 14.266346673437734 L-11.975400304237803 11.711857705911957 L-11.975400304237803 -5.290674957003907 L-11.975400304237803 -2.7361859894781313 z"/>
<path fill="#bababa" stroke="#bababa" d="M-10.911333434027638 16.707346863486087 L-11.975400304237803 14.266346673437733 L-11.975400304237803 -2.7361859894781313 L-10.911333434027638 -0.29518579942977863 z"/>
<path fill="#bababa" stroke="#bababa" d="M-8.877746704606032 18.81796469701831 L-10.911333434027638 16.707346863486087 L-10.911333434027636 -0.2951857994297786 L-8.877746704606032 1.8154320341024492 z"/>
<path fill="#bababa" stroke="#bababa" d="M-6.055333221130461 20.41066251723128 L-8.877746704606029 18.81796469701831 L-8.877746704606032 1.8154320341024495 L-6.0553332211304625 3.4081298543154186 z"/>
<path fill="#bababa" stroke="#bababa" d="M-2.694876807565301 21.343922133359804 L-6.055333221130464 20.41066251723128 L-6.055333221130464 3.408129854315416 L-2.694876807565301 4.341389470443938 z"/>
<path fill="#bababa" stroke="#bababa" d="M0.9050312366241221 21.534819332968492 L-2.694876807565301 21.3439221333598 L-2.694876807565301 4.341389470443937 L0.9050312366241221 4.532286670052632 z"/>
<path fill="#bababa" stroke="#bababa" d="M4.424523283775332 20.966392062133554 L0.9050312366241221 21.534819332968492 L0.9050312366241221 4.532286670052631 L4.424523283775332 3.963859399217694 z"/>
<path fill="#bababa" stroke="#bababa" d="M7.550877020462473 19.689147578370665 L4.424523283775332 20.966392062133554 L4.424523283775332 3.963859399217693 L7.550877020462473 2.686614915454805 z"/>
<path fill="#bababa" stroke="#bababa" d="M10.006302197403516 17.816574659157254 L7.5508770204624724 19.68914757837067 L7.550877020462474 2.6866149154548054 L10.006302197403514 0.8140419962413904 z"/>
<path fill="#bababa" stroke="#bababa" d="M11.57262351217133 15.515059626016328 L10.006302197403514 17.816574659157254 L10.006302197403514 0.8140419962413891 L11.57262351217133 -1.4874730368995355 z"/>
<path fill="#bababa" stroke="#bababa" d="M12.11066644226092 12.989102189674844 L11.57262351217133 15.515059626016328 L11.57262351217133 -1.4874730368995357 L12.11066644226092 -4.01343047324102 z"/>
<path fill="#bababa" stroke="#bababa" d="M11.572623512171326 -6.539387909582512 L12.11066644226092 -4.01343047324102 L10.006302197403514 0.8140419962413894 z"/>
<path fill="#bababa" stroke="#bababa" d="M10.006302197403508 -8.840902942723432 L11.572623512171326 -6.539387909582512 L7.550877020462477 -10.71347586193684 z"/>
<path fill="#bababa" stroke="#bababa" d="M0.9050312366241221 4.532286670052632 L11.572623512171326 -6.539387909582512 L10.006302197403514 0.8140419962413894 z"/>
<path fill="#bababa" stroke="#bababa" d="M4.4245232837753345 -11.99072034569973 L7.550877020462477 -10.71347586193684 L0.9050312366241213 -12.55914761653467 z"/>
<path fill="#bababa" stroke="#bababa" d="M0.9050312366241222 4.532286670052632 L7.550877020462478 -10.71347586193684 L11.572623512171326 -6.539387909582512 z"/>
<path fill="#bababa" stroke="#bababa" d="M-2.694876807565287 -12.368250416925981 L0.9050312366241213 -12.559147616534672 L-6.055333221130465 -11.434990800797456 z"/>
<path fill="#bababa" stroke="#bababa" d="M-6.055333221130464 -11.434990800797456 L0.9050312366241212 -12.55914761653467 L7.550877020462476 -10.71347586193684 z"/>
<path fill="#bababa" stroke="#bababa" d="M-8.877746704606027 -9.84229298058449 L-6.055333221130465 -11.434990800797454 L-10.911333434027634 -7.731675147052263 z"/>
<path fill="#bababa" stroke="#bababa" d="M-10.911333434027634 -7.731675147052263 L-6.055333221130464 -11.434990800797454 L-11.975400304237802 -2.7361859894781313 z"/>
<path fill="#bababa" stroke="#bababa" d="M-11.975400304237802 -5.290674957003907 L-10.911333434027634 -7.731675147052263 L-11.975400304237802 -2.7361859894781313 z"/>
<path fill="#bababa" stroke="#bababa" d="M-11.975400304237803 -2.7361859894781313 L-6.055333221130464 -11.434990800797456 L7.550877020462477 -10.71347586193684 z"/>
<path fill="#bababa" stroke="#bababa" d="M-8.877746704606032 1.815432034102449 L-11.975400304237803 -2.7361859894781313 L0.9050312366241221 4.532286670052631 z"/>
<path fill="#bababa" stroke="#bababa" d="M-8.877746704606032 1.815432034102449 L-10.911333434027638 -0.2951857994297787 L-11.975400304237803 -2.7361859894781313 z"/>
<path fill="#bababa" stroke="#bababa" d="M-6.055333221130463 3.4081298543154177 L-8.877746704606032 1.815432034102449 L0.9050312366241221 4.532286670052631 z"/>
<path fill="#bababa" stroke="#bababa" d="M-2.694876807565301 4.34138947044394 L-6.055333221130463 3.4081298543154173 L0.9050312366241221 4.532286670052632 z"/>
<path fill="#bababa" stroke="#bababa" d="M0.9050312366241221 4.532286670052631 L-11.975400304237802 -2.7361859894781317 L7.550877020462477 -10.713475861936843 z"/>
<path fill="#bababa" stroke="#bababa" d="M7.550877020462473 2.6866149154548054 L4.424523283775332 3.963859399217694 L0.9050312366241221 4.532286670052632 z"/>
<path fill="#bababa" stroke="#bababa" d="M7.550877020462474 2.6866149154548054 L0.9050312366241221 4.532286670052632 L10.006302197403514 0.8140419962413894 z"/>
<path fill="#bababa" stroke="#bababa" d="M12.11066644226092 -4.01343047324102 L11.57262351217133 -1.4874730368995355 L10.006302197403516 0.8140419962413894 z"/>
<path fill="#bababa" stroke="#bababa" d="M12.11066644226092 12.989102189674844 L11.572623512171326 10.463144753333355 L10.006302197403514 17.816574659157254 z"/>
<path fill="#bababa" stroke="#bababa" d="M11.572623512171326 10.463144753333355 L10.006302197403508 8.161629720192431 L7.550877020462477 6.289056800979022 z"/>
<path fill="#bababa" stroke="#bababa" d="M11.572623512171326 10.463144753333355 L0.9050312366241221 21.534819332968492 L10.006302197403514 17.816574659157254 z"/>
<path fill="#bababa" stroke="#bababa" d="M7.550877020462477 6.289056800979024 L4.4245232837753345 5.011812317216135 L0.9050312366241213 4.443385046381195 z"/>
<path fill="#bababa" stroke="#bababa" d="M7.550877020462478 6.289056800979023 L0.9050312366241222 21.534819332968496 L11.572623512171326 10.463144753333353 z"/>
<path fill="#bababa" stroke="#bababa" d="M0.9050312366241213 4.443385046381194 L-2.694876807565287 4.634282245989883 L-6.055333221130465 5.56754186211841 z"/>
<path fill="#bababa" stroke="#bababa" d="M0.9050312366241212 4.443385046381195 L-6.055333221130464 5.56754186211841 L7.550877020462476 6.289056800979022 z"/>
<path fill="#bababa" stroke="#bababa" d="M-6.055333221130465 5.56754186211841 L-8.877746704606027 7.160239682331374 L-10.911333434027634 9.2708575158636 z"/>
<path fill="#bababa" stroke="#bababa" d="M-6.055333221130464 5.56754186211841 L-10.911333434027634 9.270857515863602 L-11.975400304237802 14.266346673437733 z"/>
<path fill="#bababa" stroke="#bababa" d="M-10.911333434027634 9.270857515863602 L-11.975400304237802 11.711857705911955 L-11.975400304237802 14.266346673437734 z"/>
<path fill="#bababa" stroke="#bababa" d="M-6.055333221130464 5.56754186211841 L-11.975400304237803 14.266346673437734 L7.550877020462477 6.289056800979023 z"/>
<path fill="#bababa" stroke="#bababa" d="M-11.975400304237803 14.266346673437734 L-8.877746704606032 18.817964697018315 L0.9050312366241221 21.534819332968496 z"/>
<path fill="#bababa" stroke="#bababa" d="M-10.911333434027638 16.707346863486087 L-8.877746704606032 18.817964697018315 L-11.975400304237803 14.266346673437734 z"/>
<path fill="#bababa" stroke="#bababa" d="M-8.877746704606032 18.81796469701831 L-6.055333221130463 20.41066251723128 L0.9050312366241221 21.534819332968496 z"/>
<path fill="#bababa" stroke="#bababa" d="M-6.055333221130463 20.410662517231284 L-2.694876807565301 21.343922133359804 L0.9050312366241221 21.534819332968496 z"/>
<path fill="#bababa" stroke="#bababa" d="M-11.975400304237802 14.266346673437734 L0.9050312366241221 21.534819332968496 L7.550877020462477 6.289056800979023 z"/>
<path fill="#bababa" stroke="#bababa" d="M4.424523283775332 20.966392062133558 L7.550877020462473 19.68914757837067 L0.9050312366241221 21.534819332968496 z"/>
<path fill="#bababa" stroke="#bababa" d="M0.9050312366241221 21.534819332968496 L7.550877020462474 19.68914757837067 L10.006302197403514 17.816574659157254 z"/>
<path fill="#bababa" stroke="#bababa" d="M11.57262351217133 15.515059626016328 L12.11066644226092 12.989102189674846 L10.006302197403516 17.816574659157254 z"/>
</svg>